<svg width="43" height="51" viewBox="0 0 43 51" fill="none" xmlns="http://www.w3.org/2000/svg">
<path d="M35.4633 29.4204C38.7579 27.4886 38.7579 22.7258 35.4633 20.794L1.3639e-05 5.91635e-05L1.14441e-05 50.2144L35.4633 29.4204Z" fill="#E0982F"/>
<path d="M3.49339 25.5117L9.17508 31.1935C9.37917 31.4318 9.73786 31.4596 9.97618 31.2554C10.2145 31.0513 10.2423 30.6927 10.0381 30.4543C10.0191 30.4321 9.9984 30.4114 9.97618 30.3924L5.26606 25.6765L27.76 25.6765C28.0738 25.6765 28.3282 25.4221 28.3282 25.1083C28.3282 24.7945 28.0738 24.5402 27.76 24.5402L5.26606 24.5402L9.97618 19.8301C10.2145 19.626 10.2423 19.2673 10.0381 19.0289C9.834 18.7906 9.47536 18.7628 9.23704 18.967C9.21482 18.986 9.19407 19.0067 9.17508 19.0289L3.49334 24.7107C3.27308 24.9322 3.27308 25.2901 3.49339 25.5117Z" fill="white"/>
</svg>
