<svg width="43" height="51" viewBox="0 0 43 51" fill="none" xmlns="http://www.w3.org/2000/svg">
<path d="M7.53671 29.9119C4.24212 27.9801 4.24212 23.2172 7.53671 21.2854L43 0.491514L43 50.7058L7.53671 29.9119Z" fill="#E0982F"/>
<path d="M39.5066 24.9211L33.825 19.2394C33.6209 19.0011 33.2622 18.9733 33.0238 19.1774C32.7855 19.3815 32.7577 19.7402 32.9619 19.9785C32.9809 20.0007 33.0016 20.0215 33.0238 20.0405L37.734 24.7563L15.24 24.7563C14.9263 24.7563 14.6719 25.0107 14.6719 25.3245C14.6719 25.6383 14.9263 25.8927 15.24 25.8927L37.734 25.8927L33.0238 30.6028C32.7855 30.8069 32.7577 31.1656 32.9619 31.4039C33.166 31.6422 33.5247 31.67 33.763 31.4659C33.7852 31.4468 33.806 31.4261 33.825 31.4039L39.5067 25.7222C39.727 25.5007 39.727 25.1427 39.5066 24.9211Z" fill="white"/>
</svg>
